<?xml version="1.0" standalone="no"?>
<!DOCTYPE svg PUBLIC "-//W3C//DTD SVG 20010904//EN"
 "http://www.w3.org/TR/2001/REC-SVG-20010904/DTD/svg10.dtd">
<svg version="1.0" xmlns="http://www.w3.org/2000/svg"
 width="512.000000pt" height="512.000000pt" viewBox="0 0 512.000000 512.000000"
 preserveAspectRatio="xMidYMid meet">

<g transform="translate(0.000000,512.000000) scale(0.100000,-0.100000)"
fill="#000000" stroke="none">
<path d="M776 4641 c-61 -21 -117 -68 -142 -118 -18 -36 -19 -78 -24 -823 -5
-770 -5 -786 -26 -830 -35 -76 -126 -149 -186 -151 -15 0 -6 -7 28 -20 67 -25
123 -75 154 -135 l25 -49 5 -785 5 -785 24 -49 c48 -98 139 -130 366 -131
l150 0 3 61 3 61 -96 5 c-103 6 -128 16 -169 72 -21 27 -21 40 -26 764 -4 652
-7 742 -21 780 -37 94 -108 162 -196 188 l-56 16 51 17 c70 24 122 61 156 109
63 92 61 57 66 857 5 710 6 731 25 765 29 50 83 73 182 78 l83 5 0 58 0 59
-167 -1 c-131 0 -179 -4 -217 -18z"/>
<path d="M3970 4602 l0 -59 83 -5 c103 -5 152 -28 181 -84 21 -38 21 -56 26
-774 l5 -735 28 -57 c35 -72 103 -133 173 -155 53 -16 63 -33 21 -33 -35 0
-121 -55 -156 -99 -70 -88 -65 -37 -71 -856 -5 -722 -6 -741 -25 -775 -33 -54
-75 -73 -177 -78 l-88 -4 0 -66 0 -65 163 6 c186 6 242 19 304 72 82 70 78 21
81 894 l2 775 24 50 c12 28 38 65 56 83 32 31 106 72 132 74 7 0 -9 7 -36 15
-64 20 -137 92 -160 159 -15 45 -17 119 -16 780 0 436 -4 754 -10 790 -13 81
-50 132 -125 170 -58 30 -61 30 -237 33 l-178 4 0 -60z"/>
<path d="M2083 3879 c-181 -30 -345 -156 -432 -333 -60 -120 -82 -216 -82
-363 -1 -150 26 -269 87 -391 l42 -83 -33 -54 c-74 -124 -109 -307 -93 -499
20 -244 156 -458 353 -556 118 -59 131 -60 918 -60 l717 0 0 253 0 252 -635
-3 c-433 -2 -648 1 -675 8 -50 13 -106 62 -125 108 -37 86 -8 222 57 277 l30
25 674 0 674 0 0 255 0 255 -660 0 c-723 0 -691 -3 -743 59 -36 44 -50 93 -45
171 4 77 36 137 91 170 31 19 54 20 695 20 l662 0 0 250 0 250 -712 -1 c-392
-1 -736 -5 -765 -10z"/>
</g>
</svg>
